<?xml version="1.0" standalone="no"?>
<!DOCTYPE svg PUBLIC "-//W3C//DTD SVG 20010904//EN"
 "http://www.w3.org/TR/2001/REC-SVG-20010904/DTD/svg10.dtd">
<svg version="1.0" xmlns="http://www.w3.org/2000/svg"
 width="107.000000pt" height="109.000000pt" viewBox="0 0 107.000000 109.000000"
 preserveAspectRatio="xMidYMid meet">
<metadata>
Created by potrace 1.10, written by Peter Selinger 2001-2011
</metadata>
<g transform="translate(0.000000,109.000000) scale(0.100000,-0.100000)"
fill="#000000" stroke="none">
<path d="M402 1064 c-74 -20 -108 -39 -170 -98 -212 -200 -159 -533 106 -663
73 -37 80 -38 176 -37 72 0 112 5 138 17 39 18 67 46 32 33 -182 -70 -388 14
-477 193 -30 61 -32 72 -32 171 0 98 2 109 32 165 64 123 182 202 319 212 46
4 70 9 62 14 -20 13 -127 9 -186 -7z"/>
<path d="M475 991 c-91 -25 -170 -92 -205 -173 -32 -74 -26 -195 13 -260 57
-98 150 -152 262 -152 90 0 149 26 215 94 58 60 75 106 74 205 0 113 -61 212
-162 264 -44 23 -151 34 -197 22z m244 -233 c45 -108 81 -199 81 -202 0 -3
-83 -6 -185 -6 -102 0 -185 2 -185 4 0 3 34 80 76 173 42 92 85 188 96 213 15
35 21 41 28 30 5 -9 45 -104 89 -212z m-169 178 c0 -16 -19 -64 -67 -166 -57
-123 -83 -188 -83 -209 0 -40 36 -51 167 -51 134 0 151 -8 81 -40 -91 -41
-223 -15 -290 56 -116 125 -78 335 74 404 51 23 118 27 118 6z m221 -127 c20
-40 27 -101 9 -83 -5 5 -21 40 -35 78 -20 53 -22 66 -10 56 9 -8 25 -31 36
-51z"/>
<path d="M582 823 c-11 -27 -41 -92 -66 -145 l-45 -98 130 0 129 0 -18 38
c-10 20 -38 85 -61 145 -24 59 -44 107 -46 107 -1 0 -12 -21 -23 -47z m47
-115 c39 -90 40 -88 -28 -88 -34 0 -61 4 -61 9 0 20 51 121 60 121 6 0 19 -19
29 -42z"/>
<path d="M127 911 c-20 -22 -52 -75 -73 -118 -37 -75 -38 -82 -42 -205 -4
-108 -1 -137 17 -196 84 -279 394 -438 678 -347 187 59 346 237 359 402 l5 58
-20 -59 c-40 -120 -142 -237 -258 -295 -96 -48 -248 -64 -352 -36 -263 70
-434 339 -380 597 12 57 54 152 89 206 29 43 20 40 -23 -7z"/>
</g>
</svg>
